# xmcd
#
# Track frame offsets:
#	150
#	19295
#	42197
#	57332
#	80782
#	107277
#	127457
#	141427
#	160910
#	175857
#
# Disc length: 2617 seconds
#
# Revision: 3
# Processed by: cddbd v1.5.2PL0 Copyright (c) Steve Scherf et al.
# Submitted via: VUPlayer 2.49
#
DISCID=8d0a370a
DTITLE=Björk - Homogenic
DYEAR=1997
DGENRE=Alternative
TTITLE0=Hunter
TTITLE1=Jóga
TTITLE2=Unravel
TTITLE3=Bachelorette
TTITLE4=All Neon Like
TTITLE5=Five Years
TTITLE6=Immature
TTITLE7=Alarm Call
TTITLE8=Pluto
TTITLE9=All Is Full of Love
EXTD=
EXTT0=
EXTT1=
EXTT2=
EXTT3=
EXTT4=
EXTT5=
EXTT6=
EXTT7=
EXTT8=
EXTT9=
PLAYORDER=
